<?xml version="1.0" encoding="UTF-8" standalone="no"?>
<!DOCTYPE svg PUBLIC "-//W3C//DTD SVG 1.1//EN"
 "http://www.w3.org/Graphics/SVG/1.1/DTD/svg11.dtd">
<!-- Generated by graphviz version 7.1.0 (20230121.1956)
 -->
<!-- Title: Database Structure Pages: 1 -->
<svg width="822pt" height="578pt"
 viewBox="0.00 0.00 822.00 578.35" xmlns="http://www.w3.org/2000/svg" xmlns:xlink="http://www.w3.org/1999/xlink">
<g id="graph0" class="graph" transform="scale(1 1) rotate(0) translate(4 574.35)">
<title>Database Structure</title>
<polygon fill="white" stroke="none" points="-4,4 -4,-574.35 818,-574.35 818,4 -4,4"/>
<!-- auditoriums -->
<g id="node1" class="node">
<title>auditoriums</title>
<polygon fill="#a5b5e6" stroke="none" points="713,-206.95 713,-227.95 802,-227.95 802,-206.95 713,-206.95"/>
<polygon fill="none" stroke="black" points="713,-206.95 713,-227.95 802,-227.95 802,-206.95 713,-206.95"/>
<text text-anchor="start" x="724.5" y="-213.75" font-family="Times,serif" font-size="14.00">auditoriums</text>
<polygon fill="#abcfaf" stroke="none" points="713,-185.95 713,-206.95 802,-206.95 802,-185.95 713,-185.95"/>
<polygon fill="none" stroke="black" points="713,-185.95 713,-206.95 802,-206.95 802,-185.95 713,-185.95"/>
<text text-anchor="start" x="741.5" y="-193.75" font-family="Times,serif" font-size="14.00">id:</text>
<text text-anchor="start" x="756.5" y="-193.75" font-family="Helvetica,sans-Serif" font-style="oblique" font-size="10.00">INT</text>
<polygon fill="none" stroke="black" points="713,-164.95 713,-185.95 802,-185.95 802,-164.95 713,-164.95"/>
<text text-anchor="start" x="716" y="-172.75" font-family="Times,serif" font-size="14.00">name:</text>
<text text-anchor="start" x="750" y="-172.75" font-family="Helvetica,sans-Serif" font-style="oblique" font-size="10.00">VARCHAR</text>
</g>
<!-- bookings -->
<g id="node2" class="node">
<title>bookings</title>
<polygon fill="#a5b5e6" stroke="none" points="210,-389.95 210,-410.95 359,-410.95 359,-389.95 210,-389.95"/>
<polygon fill="none" stroke="black" points="210,-389.95 210,-410.95 359,-410.95 359,-389.95 210,-389.95"/>
<text text-anchor="start" x="259.5" y="-396.75" font-family="Times,serif" font-size="14.00">bookings</text>
<polygon fill="#abcfaf" stroke="none" points="210,-368.95 210,-389.95 359,-389.95 359,-368.95 210,-368.95"/>
<polygon fill="none" stroke="black" points="210,-368.95 210,-389.95 359,-389.95 359,-368.95 210,-368.95"/>
<text text-anchor="start" x="268.5" y="-376.75" font-family="Times,serif" font-size="14.00">id:</text>
<text text-anchor="start" x="283.5" y="-376.75" font-family="Helvetica,sans-Serif" font-style="oblique" font-size="10.00">INT</text>
<polygon fill="none" stroke="black" points="210,-347.95 210,-368.95 359,-368.95 359,-347.95 210,-347.95"/>
<text text-anchor="start" x="244.5" y="-355.75" font-family="Times,serif" font-size="14.00">time:</text>
<text text-anchor="start" x="273.5" y="-355.75" font-family="Helvetica,sans-Serif" font-style="oblique" font-size="10.00">DATETIME</text>
<polygon fill="none" stroke="black" points="210,-326.95 210,-347.95 359,-347.95 359,-326.95 210,-326.95"/>
<text text-anchor="start" x="213" y="-334.75" font-family="Times,serif" font-size="14.00">bookingNumber:</text>
<text text-anchor="start" x="307" y="-334.75" font-family="Helvetica,sans-Serif" font-style="oblique" font-size="10.00">VARCHAR</text>
<polygon fill="#d9bc7e" stroke="none" points="210,-305.95 210,-326.95 359,-326.95 359,-305.95 210,-305.95"/>
<polygon fill="none" stroke="black" points="210,-305.95 210,-326.95 359,-326.95 359,-305.95 210,-305.95"/>
<text text-anchor="start" x="242.5" y="-313.75" font-family="Times,serif" font-size="14.00">screeningId:</text>
<text text-anchor="start" x="309.5" y="-313.75" font-family="Helvetica,sans-Serif" font-style="oblique" font-size="10.00">INT</text>
<polygon fill="#d9bc7e" stroke="none" points="210,-284.95 210,-305.95 359,-305.95 359,-284.95 210,-284.95"/>
<polygon fill="none" stroke="black" points="210,-284.95 210,-305.95 359,-305.95 359,-284.95 210,-284.95"/>
<text text-anchor="start" x="257" y="-292.75" font-family="Times,serif" font-size="14.00">userId:</text>
<text text-anchor="start" x="295" y="-292.75" font-family="Helvetica,sans-Serif" font-style="oblique" font-size="10.00">INT</text>
</g>
<!-- screenings -->
<g id="node7" class="node">
<title>screenings</title>
<polygon fill="#a5b5e6" stroke="none" points="484,-441.95 484,-462.95 583,-462.95 583,-441.95 484,-441.95"/>
<polygon fill="none" stroke="black" points="484,-441.95 484,-462.95 583,-462.95 583,-441.95 484,-441.95"/>
<text text-anchor="start" x="504.5" y="-448.75" font-family="Times,serif" font-size="14.00">screenings</text>
<polygon fill="#abcfaf" stroke="none" points="484,-420.95 484,-441.95 583,-441.95 583,-420.95 484,-420.95"/>
<polygon fill="none" stroke="black" points="484,-420.95 484,-441.95 583,-441.95 583,-420.95 484,-420.95"/>
<text text-anchor="start" x="517.5" y="-428.75" font-family="Times,serif" font-size="14.00">id:</text>
<text text-anchor="start" x="532.5" y="-428.75" font-family="Helvetica,sans-Serif" font-style="oblique" font-size="10.00">INT</text>
<polygon fill="none" stroke="black" points="484,-399.95 484,-420.95 583,-420.95 583,-399.95 484,-399.95"/>
<text text-anchor="start" x="493.5" y="-407.75" font-family="Times,serif" font-size="14.00">time:</text>
<text text-anchor="start" x="522.5" y="-407.75" font-family="Helvetica,sans-Serif" font-style="oblique" font-size="10.00">DATETIME</text>
<polygon fill="#d9bc7e" stroke="none" points="484,-378.95 484,-399.95 583,-399.95 583,-378.95 484,-378.95"/>
<polygon fill="none" stroke="black" points="484,-378.95 484,-399.95 583,-399.95 583,-378.95 484,-378.95"/>
<text text-anchor="start" x="500" y="-386.75" font-family="Times,serif" font-size="14.00">movieId:</text>
<text text-anchor="start" x="550" y="-386.75" font-family="Helvetica,sans-Serif" font-style="oblique" font-size="10.00">INT</text>
<polygon fill="#d9bc7e" stroke="none" points="484,-357.95 484,-378.95 583,-378.95 583,-357.95 484,-357.95"/>
<polygon fill="none" stroke="black" points="484,-357.95 484,-378.95 583,-378.95 583,-357.95 484,-357.95"/>
<text text-anchor="start" x="487" y="-365.75" font-family="Times,serif" font-size="14.00">auditoriumId:</text>
<text text-anchor="start" x="563" y="-365.75" font-family="Helvetica,sans-Serif" font-style="oblique" font-size="10.00">INT</text>
</g>
<!-- bookings&#45;&gt;screenings -->
<g id="edge1" class="edge">
<title>bookings:screeningId&#45;&gt;screenings:id</title>
<path fill="none" stroke="#444444" stroke-dasharray="5,2" d="M360,-315.95C431.47,-315.95 410.28,-420.9 472.7,-431.15"/>
<polygon fill="#444444" stroke="#444444" points="482.23,-435.41 472.53,-431.14 482.77,-428.43 482.23,-435.41"/>
</g>
<!-- users -->
<g id="node10" class="node">
<title>users</title>
<polygon fill="#a5b5e6" stroke="none" points="465,-295.95 465,-316.95 602,-316.95 602,-295.95 465,-295.95"/>
<polygon fill="none" stroke="black" points="465,-295.95 465,-316.95 602,-316.95 602,-295.95 465,-295.95"/>
<text text-anchor="start" x="519.5" y="-302.75" font-family="Times,serif" font-size="14.00">users</text>
<polygon fill="#abcfaf" stroke="none" points="465,-274.95 465,-295.95 602,-295.95 602,-274.95 465,-274.95"/>
<polygon fill="none" stroke="black" points="465,-274.95 465,-295.95 602,-295.95 602,-274.95 465,-274.95"/>
<text text-anchor="start" x="517.5" y="-282.75" font-family="Times,serif" font-size="14.00">id:</text>
<text text-anchor="start" x="532.5" y="-282.75" font-family="Helvetica,sans-Serif" font-style="oblique" font-size="10.00">INT</text>
<polygon fill="none" stroke="black" points="465,-253.95 465,-274.95 602,-274.95 602,-253.95 465,-253.95"/>
<text text-anchor="start" x="491.5" y="-261.75" font-family="Times,serif" font-size="14.00">email:</text>
<text text-anchor="start" x="526.5" y="-261.75" font-family="Helvetica,sans-Serif" font-style="oblique" font-size="10.00">VARCHAR</text>
<polygon fill="none" stroke="black" points="465,-232.95 465,-253.95 602,-253.95 602,-232.95 465,-232.95"/>
<text text-anchor="start" x="481.5" y="-240.75" font-family="Times,serif" font-size="14.00">password:</text>
<text text-anchor="start" x="536.5" y="-240.75" font-family="Helvetica,sans-Serif" font-style="oblique" font-size="10.00">VARCHAR</text>
<polygon fill="none" stroke="black" points="465,-211.95 465,-232.95 602,-232.95 602,-211.95 465,-211.95"/>
<text text-anchor="start" x="479.5" y="-219.75" font-family="Times,serif" font-size="14.00">firstName:</text>
<text text-anchor="start" x="538.5" y="-219.75" font-family="Helvetica,sans-Serif" font-style="oblique" font-size="10.00">VARCHAR</text>
<polygon fill="none" stroke="black" points="465,-190.95 465,-211.95 602,-211.95 602,-190.95 465,-190.95"/>
<text text-anchor="start" x="481" y="-198.75" font-family="Times,serif" font-size="14.00">lastName:</text>
<text text-anchor="start" x="537" y="-198.75" font-family="Helvetica,sans-Serif" font-style="oblique" font-size="10.00">VARCHAR</text>
<polygon fill="none" stroke="black" points="465,-169.95 465,-190.95 602,-190.95 602,-169.95 465,-169.95"/>
<text text-anchor="start" x="468" y="-177.75" font-family="Times,serif" font-size="14.00">phoneNumber:</text>
<text text-anchor="start" x="550" y="-177.75" font-family="Helvetica,sans-Serif" font-style="oblique" font-size="10.00">VARCHAR</text>
</g>
<!-- bookings&#45;&gt;users -->
<g id="edge2" class="edge">
<title>bookings:userId&#45;&gt;users:id</title>
<path fill="none" stroke="#444444" stroke-dasharray="5,2" d="M360,-294.95C402.77,-294.95 415.64,-287.31 453.74,-286.11"/>
<polygon fill="#444444" stroke="#444444" points="463.55,-289.46 453.5,-286.11 463.45,-282.46 463.55,-289.46"/>
</g>
<!-- bookingsXseats -->
<g id="node3" class="node">
<title>bookingsXseats</title>
<polygon fill="#a5b5e6" stroke="none" points="8,-239.95 8,-260.95 104,-260.95 104,-239.95 8,-239.95"/>
<polygon fill="none" stroke="black" points="8,-239.95 8,-260.95 104,-260.95 104,-239.95 8,-239.95"/>
<text text-anchor="start" x="13" y="-246.75" font-family="Times,serif" font-size="14.00">bookingsXseats</text>
<polygon fill="#d9bc7e" stroke="none" points="8,-218.95 8,-239.95 104,-239.95 104,-218.95 8,-218.95"/>
<polygon fill="none" stroke="black" points="8,-218.95 8,-239.95 104,-239.95 104,-218.95 8,-218.95"/>
<text text-anchor="start" x="17.5" y="-226.75" font-family="Times,serif" font-size="14.00">bookingId:</text>
<text text-anchor="start" x="77.5" y="-226.75" font-family="Helvetica,sans-Serif" font-style="oblique" font-size="10.00">INT</text>
<polygon fill="#d9bc7e" stroke="none" points="8,-197.95 8,-218.95 104,-218.95 104,-197.95 8,-197.95"/>
<polygon fill="none" stroke="black" points="8,-197.95 8,-218.95 104,-218.95 104,-197.95 8,-197.95"/>
<text text-anchor="start" x="29" y="-205.75" font-family="Times,serif" font-size="14.00">seatId:</text>
<text text-anchor="start" x="66" y="-205.75" font-family="Helvetica,sans-Serif" font-style="oblique" font-size="10.00">INT</text>
<polygon fill="#d9bc7e" stroke="none" points="8,-176.95 8,-197.95 104,-197.95 104,-176.95 8,-176.95"/>
<polygon fill="none" stroke="black" points="8,-176.95 8,-197.95 104,-197.95 104,-176.95 8,-176.95"/>
<text text-anchor="start" x="11" y="-184.75" font-family="Times,serif" font-size="14.00">ticketTypeId:</text>
<text text-anchor="start" x="84" y="-184.75" font-family="Helvetica,sans-Serif" font-style="oblique" font-size="10.00">INT</text>
</g>
<!-- bookingsXseats&#45;&gt;bookings -->
<g id="edge3" class="edge">
<title>bookingsXseats:bookingId&#45;&gt;bookings:id</title>
<path fill="none" stroke="#444444" stroke-dasharray="5,2" d="M105,-229.95C182.32,-229.95 133.03,-366.22 198.48,-379"/>
<polygon fill="#444444" stroke="#444444" points="208.18,-383.39 198.54,-379 208.82,-376.42 208.18,-383.39"/>
</g>
<!-- seats -->
<g id="node8" class="node">
<title>seats</title>
<polygon fill="#a5b5e6" stroke="none" points="235,-213.95 235,-234.95 334,-234.95 334,-213.95 235,-213.95"/>
<polygon fill="none" stroke="black" points="235,-213.95 235,-234.95 334,-234.95 334,-213.95 235,-213.95"/>
<text text-anchor="start" x="271" y="-220.75" font-family="Times,serif" font-size="14.00">seats</text>
<polygon fill="#abcfaf" stroke="none" points="235,-192.95 235,-213.95 334,-213.95 334,-192.95 235,-192.95"/>
<polygon fill="none" stroke="black" points="235,-192.95 235,-213.95 334,-213.95 334,-192.95 235,-192.95"/>
<text text-anchor="start" x="268.5" y="-200.75" font-family="Times,serif" font-size="14.00">id:</text>
<text text-anchor="start" x="283.5" y="-200.75" font-family="Helvetica,sans-Serif" font-style="oblique" font-size="10.00">INT</text>
<polygon fill="none" stroke="black" points="235,-171.95 235,-192.95 334,-192.95 334,-171.95 235,-171.95"/>
<text text-anchor="start" x="241" y="-179.75" font-family="Times,serif" font-size="14.00">rowNumber:</text>
<text text-anchor="start" x="311" y="-179.75" font-family="Helvetica,sans-Serif" font-style="oblique" font-size="10.00">INT</text>
<polygon fill="none" stroke="black" points="235,-150.95 235,-171.95 334,-171.95 334,-150.95 235,-150.95"/>
<text text-anchor="start" x="241" y="-158.75" font-family="Times,serif" font-size="14.00">seatNumber:</text>
<text text-anchor="start" x="311" y="-158.75" font-family="Helvetica,sans-Serif" font-style="oblique" font-size="10.00">INT</text>
<polygon fill="#d9bc7e" stroke="none" points="235,-129.95 235,-150.95 334,-150.95 334,-129.95 235,-129.95"/>
<polygon fill="none" stroke="black" points="235,-129.95 235,-150.95 334,-150.95 334,-129.95 235,-129.95"/>
<text text-anchor="start" x="238" y="-137.75" font-family="Times,serif" font-size="14.00">auditoriumId:</text>
<text text-anchor="start" x="314" y="-137.75" font-family="Helvetica,sans-Serif" font-style="oblique" font-size="10.00">INT</text>
</g>
<!-- bookingsXseats&#45;&gt;seats -->
<g id="edge4" class="edge">
<title>bookingsXseats:seatId&#45;&gt;seats:id</title>
<path fill="none" stroke="#444444" stroke-dasharray="5,2" d="M105,-207.95C158.66,-207.95 174.62,-204.45 223.42,-204"/>
<polygon fill="#444444" stroke="#444444" points="233.52,-207.46 223.5,-204 233.48,-200.46 233.52,-207.46"/>
</g>
<!-- ticketTypes -->
<g id="node9" class="node">
<title>ticketTypes</title>
<polygon fill="#a5b5e6" stroke="none" points="240,-71.95 240,-92.95 329,-92.95 329,-71.95 240,-71.95"/>
<polygon fill="none" stroke="black" points="240,-71.95 240,-92.95 329,-92.95 329,-71.95 240,-71.95"/>
<text text-anchor="start" x="252.5" y="-78.75" font-family="Times,serif" font-size="14.00">ticketTypes</text>
<polygon fill="#abcfaf" stroke="none" points="240,-50.95 240,-71.95 329,-71.95 329,-50.95 240,-50.95"/>
<polygon fill="none" stroke="black" points="240,-50.95 240,-71.95 329,-71.95 329,-50.95 240,-50.95"/>
<text text-anchor="start" x="268.5" y="-58.75" font-family="Times,serif" font-size="14.00">id:</text>
<text text-anchor="start" x="283.5" y="-58.75" font-family="Helvetica,sans-Serif" font-style="oblique" font-size="10.00">INT</text>
<polygon fill="none" stroke="black" points="240,-29.95 240,-50.95 329,-50.95 329,-29.95 240,-29.95"/>
<text text-anchor="start" x="243" y="-37.75" font-family="Times,serif" font-size="14.00">name:</text>
<text text-anchor="start" x="277" y="-37.75" font-family="Helvetica,sans-Serif" font-style="oblique" font-size="10.00">VARCHAR</text>
<polygon fill="none" stroke="black" points="240,-8.95 240,-29.95 329,-29.95 329,-8.95 240,-8.95"/>
<text text-anchor="start" x="260.5" y="-16.75" font-family="Times,serif" font-size="14.00">price:</text>
<text text-anchor="start" x="291.5" y="-16.75" font-family="Helvetica,sans-Serif" font-style="oblique" font-size="10.00">INT</text>
</g>
<!-- bookingsXseats&#45;&gt;ticketTypes -->
<g id="edge5" class="edge">
<title>bookingsXseats:ticketTypeId&#45;&gt;ticketTypes:id</title>
<path fill="none" stroke="#444444" stroke-dasharray="5,2" d="M105,-186.95C182.79,-186.95 159.93,-72.93 228.67,-62.69"/>
<polygon fill="#444444" stroke="#444444" points="238.75,-65.48 228.53,-62.7 238.25,-58.5 238.75,-65.48"/>
</g>
<!-- categories -->
<g id="node4" class="node">
<title>categories</title>
<polygon fill="#a5b5e6" stroke="none" points="709,-515.95 709,-536.95 805,-536.95 805,-515.95 709,-515.95"/>
<polygon fill="none" stroke="black" points="709,-515.95 709,-536.95 805,-536.95 805,-515.95 709,-515.95"/>
<text text-anchor="start" x="729.5" y="-522.75" font-family="Times,serif" font-size="14.00">categories</text>
<polygon fill="#abcfaf" stroke="none" points="709,-494.95 709,-515.95 805,-515.95 805,-494.95 709,-494.95"/>
<polygon fill="none" stroke="black" points="709,-494.95 709,-515.95 805,-515.95 805,-494.95 709,-494.95"/>
<text text-anchor="start" x="741" y="-502.75" font-family="Times,serif" font-size="14.00">id:</text>
<text text-anchor="start" x="756" y="-502.75" font-family="Helvetica,sans-Serif" font-style="oblique" font-size="10.00">INT</text>
<polygon fill="none" stroke="black" points="709,-473.95 709,-494.95 805,-494.95 805,-473.95 709,-473.95"/>
<text text-anchor="start" x="720" y="-481.75" font-family="Times,serif" font-size="14.00">title:</text>
<text text-anchor="start" x="745" y="-481.75" font-family="Helvetica,sans-Serif" font-style="oblique" font-size="10.00">VARCHAR</text>
<polygon fill="none" stroke="black" points="709,-452.95 709,-473.95 805,-473.95 805,-452.95 709,-452.95"/>
<text text-anchor="start" x="712" y="-460.75" font-family="Times,serif" font-size="14.00">description:</text>
<text text-anchor="start" x="776" y="-460.75" font-family="Helvetica,sans-Serif" font-style="oblique" font-size="10.00">TEXT</text>
</g>
<!-- movies -->
<g id="node5" class="node">
<title>movies</title>
<polygon fill="#a5b5e6" stroke="none" points="708,-394.95 708,-415.95 806,-415.95 806,-394.95 708,-394.95"/>
<polygon fill="none" stroke="black" points="708,-394.95 708,-415.95 806,-415.95 806,-394.95 708,-394.95"/>
<text text-anchor="start" x="737" y="-401.75" font-family="Times,serif" font-size="14.00">movies</text>
<polygon fill="#abcfaf" stroke="none" points="708,-373.95 708,-394.95 806,-394.95 806,-373.95 708,-373.95"/>
<polygon fill="none" stroke="black" points="708,-373.95 708,-394.95 806,-394.95 806,-373.95 708,-373.95"/>
<text text-anchor="start" x="741" y="-381.75" font-family="Times,serif" font-size="14.00">id:</text>
<text text-anchor="start" x="756" y="-381.75" font-family="Helvetica,sans-Serif" font-style="oblique" font-size="10.00">INT</text>
<polygon fill="none" stroke="black" points="708,-352.95 708,-373.95 806,-373.95 806,-352.95 708,-352.95"/>
<text text-anchor="start" x="720" y="-360.75" font-family="Times,serif" font-size="14.00">title:</text>
<text text-anchor="start" x="745" y="-360.75" font-family="Helvetica,sans-Serif" font-style="oblique" font-size="10.00">VARCHAR</text>
<polygon fill="none" stroke="black" points="708,-331.95 708,-352.95 806,-352.95 806,-331.95 708,-331.95"/>
<text text-anchor="start" x="711" y="-339.75" font-family="Times,serif" font-size="14.00">description:</text>
<text text-anchor="start" x="775" y="-339.75" font-family="Helvetica,sans-Serif" font-style="oblique" font-size="10.00">JSON</text>
</g>
<!-- moviesXcategories -->
<g id="node6" class="node">
<title>moviesXcategories</title>
<polygon fill="#a5b5e6" stroke="none" points="478,-540.95 478,-561.95 589,-561.95 589,-540.95 478,-540.95"/>
<polygon fill="none" stroke="black" points="478,-540.95 478,-561.95 589,-561.95 589,-540.95 478,-540.95"/>
<text text-anchor="start" x="481" y="-547.75" font-family="Times,serif" font-size="14.00">moviesXcategories</text>
<polygon fill="#d9bc7e" stroke="none" points="478,-519.95 478,-540.95 589,-540.95 589,-519.95 478,-519.95"/>
<polygon fill="none" stroke="black" points="478,-519.95 478,-540.95 589,-540.95 589,-519.95 478,-519.95"/>
<text text-anchor="start" x="500" y="-527.75" font-family="Times,serif" font-size="14.00">movieId:</text>
<text text-anchor="start" x="550" y="-527.75" font-family="Helvetica,sans-Serif" font-style="oblique" font-size="10.00">INT</text>
<polygon fill="#d9bc7e" stroke="none" points="478,-498.95 478,-519.95 589,-519.95 589,-498.95 478,-498.95"/>
<polygon fill="none" stroke="black" points="478,-498.95 478,-519.95 589,-519.95 589,-498.95 478,-498.95"/>
<text text-anchor="start" x="494" y="-506.75" font-family="Times,serif" font-size="14.00">categoryId:</text>
<text text-anchor="start" x="556" y="-506.75" font-family="Helvetica,sans-Serif" font-style="oblique" font-size="10.00">INT</text>
</g>
<!-- moviesXcategories&#45;&gt;categories -->
<g id="edge7" class="edge">
<title>moviesXcategories:categoryId&#45;&gt;categories:id</title>
<path fill="none" stroke="#444444" stroke-dasharray="5,2" d="M590,-508.95C638.77,-508.95 653.5,-506.36 697.49,-506"/>
<polygon fill="#444444" stroke="#444444" points="707.51,-509.46 697.5,-506 707.49,-502.46 707.51,-509.46"/>
</g>
<!-- moviesXcategories&#45;&gt;movies -->
<g id="edge6" class="edge">
<title>moviesXcategories:movieId&#45;&gt;movies:id</title>
<path fill="none" stroke="#444444" stroke-dasharray="5,2" d="M590,-529.95C669.09,-529.95 628.3,-397.69 696.61,-385.81"/>
<polygon fill="#444444" stroke="#444444" points="706.79,-388.48 696.54,-385.81 706.22,-381.51 706.79,-388.48"/>
</g>
<!-- screenings&#45;&gt;auditoriums -->
<g id="edge9" class="edge">
<title>screenings:auditoriumId&#45;&gt;auditoriums:id</title>
<path fill="none" stroke="#444444" stroke-dasharray="5,2" d="M584,-367.95C675.57,-367.95 621.36,-209.13 701.54,-196.72"/>
<polygon fill="#444444" stroke="#444444" points="711.76,-199.48 701.53,-196.72 711.25,-192.5 711.76,-199.48"/>
</g>
<!-- screenings&#45;&gt;movies -->
<g id="edge8" class="edge">
<title>screenings:movieId&#45;&gt;movies:id</title>
<path fill="none" stroke="#444444" stroke-dasharray="5,2" d="M584,-388.95C635.06,-388.95 650.32,-385.47 696.62,-385.01"/>
<polygon fill="#444444" stroke="#444444" points="706.52,-388.46 696.5,-385.01 706.48,-381.46 706.52,-388.46"/>
</g>
<!-- seats&#45;&gt;auditoriums -->
<g id="edge10" class="edge">
<title>seats:auditoriumId&#45;&gt;auditoriums:id</title>
<path fill="none" stroke="#444444" stroke-dasharray="5,2" d="M335,-139.95C457.23,-139.95 490.02,-131.15 609.5,-156.95 653.51,-166.46 662.09,-191.69 701.57,-195.48"/>
<polygon fill="#444444" stroke="#444444" points="711.34,-199.43 701.51,-195.47 711.66,-192.44 711.34,-199.43"/>
</g>
</g>
</svg>
